<svg width="40" height="40" viewBox="0 0 40 40" fill="none" xmlns="http://www.w3.org/2000/svg">
<path d="M34 4H30V2C30 1.46957 29.7893 0.960859 29.4142 0.585786C29.0391 0.210714 28.5304 0 28 0C27.4696 0 26.9609 0.210714 26.5858 0.585786C26.2107 0.960859 26 1.46957 26 2V4H14V2C14 1.46957 13.7893 0.960859 13.4142 0.585786C13.0391 0.210714 12.5304 0 12 0C11.4696 0 10.9609 0.210714 10.5858 0.585786C10.2107 0.960859 10 1.46957 10 2V4H6C4.4087 4 2.88258 4.63214 1.75736 5.75736C0.632141 6.88258 0 8.4087 0 10V34C0 35.5913 0.632141 37.1174 1.75736 38.2426C2.88258 39.3679 4.4087 40 6 40H34C35.5913 40 37.1174 39.3679 38.2426 38.2426C39.3679 37.1174 40 35.5913 40 34V10C40 8.4087 39.3679 6.88258 38.2426 5.75736C37.1174 4.63214 35.5913 4 34 4ZM36 34C36 34.5304 35.7893 35.0391 35.4142 35.4142C35.0391 35.7893 34.5304 36 34 36H6C5.46957 36 4.96086 35.7893 4.58579 35.4142C4.21071 35.0391 4 34.5304 4 34V20H36V34ZM36 16H4V10C4 9.46957 4.21071 8.96086 4.58579 8.58579C4.96086 8.21071 5.46957 8 6 8H10V10C10 10.5304 10.2107 11.0391 10.5858 11.4142C10.9609 11.7893 11.4696 12 12 12C12.5304 12 13.0391 11.7893 13.4142 11.4142C13.7893 11.0391 14 10.5304 14 10V8H26V10C26 10.5304 26.2107 11.0391 26.5858 11.4142C26.9609 11.7893 27.4696 12 28 12C28.5304 12 29.0391 11.7893 29.4142 11.4142C29.7893 11.0391 30 10.5304 30 10V8H34C34.5304 8 35.0391 8.21071 35.4142 8.58579C35.7893 8.96086 36 9.46957 36 10V16Z" fill="#01F6FF"/>
</svg>
